# File created by Blade
# Date/Time:  Tue Jan 27 19:38:14 2015
# Frame Rate: 120.000 fps
#------------------------------------------------------
:FULLY-SPECIFIED
:DEGREES
1876
root 5.053915 32.316140 2.430625 -3.583350 5.521915 0.767374
Spine 1.936965 5.864262 -1.060239
Head 6.500295 -10.315653 -0.633094
LeftShoulder -10.370600 -3.657557 25.690932
LeftArm -1.034862 32.348582 -100.324797
LeftForeArm 4.928688 -0.000000 10.327469
LeftHand 10.596534 -0.000000 -4.532876
LeftHandThumb1 -26.253704 0.000000 33.147579
RightShoulder -13.012939 -11.627896 -22.223882
RightArm 11.683535 52.969606 111.154382
RightForeArm 4.307737 -0.000000 111.766936
RightHand 28.503220 -0.000000 -17.908620
RightHandThumb1 -24.326973 -0.000000 -32.862282
LeftUpLeg 7.386317 -4.540311 -4.478404
LeftLeg 3.886016 -0.000000 -0.000000
LeftFoot -16.017798 10.297277 -19.884209
LeftToeBase 17.287580 -0.000000 -0.000000
RightUpLeg 8.109125 -10.381466 1.287739
RightLeg 2.995482 -0.000000 -0.000000
RightFoot -14.619329 -14.983661 14.894609
RightToeBase 9.053756 -0.000000 -0.000000
1877
root 5.051419 32.316278 2.430565 -3.579677 5.506089 0.761550
Spine 1.930892 5.877555 -1.090373
Head 6.467232 -10.335740 -0.591209
LeftShoulder -10.352161 -3.645153 25.706118
LeftArm -1.017708 32.394252 -100.348048
LeftForeArm 4.877663 0.000000 10.272381
LeftHand 10.632012 -0.000000 -4.479823
LeftHandThumb1 -26.253704 0.000000 33.147579
RightShoulder -13.018257 -11.690777 -22.232419
RightArm 11.778188 52.826690 111.222293
RightForeArm 4.068194 -0.000000 111.790082
RightHand 28.449457 -0.000000 -17.739548
RightHandThumb1 -24.326973 -0.000000 -32.862282
LeftUpLeg 7.387645 -4.521728 -4.466059
LeftLeg 3.863158 -0.000000 -0.000000
LeftFoot -16.006682 10.314588 -19.890940
LeftToeBase 17.272838 -0.000000 -0.000000
RightUpLeg 8.098195 -10.345617 1.303069
RightLeg 3.001559 -0.000000 -0.000000
RightFoot -14.630503 -14.996609 14.927874
RightToeBase 9.041891 -0.000000 -0.000000
1878
root 5.049559 32.317032 2.430259 -3.577811 5.491245 0.763256
Spine 1.930308 5.897445 -1.127529
Head 6.438133 -10.381688 -0.548627
LeftShoulder -10.327309 -3.666594 25.718121
LeftArm -1.036528 32.428088 -100.380337
LeftForeArm 4.862935 -0.000000 10.231587
LeftHand 10.592792 0.000000 -4.536447
LeftHandThumb1 -26.253704 0.000000 33.147579
RightShoulder -13.030643 -11.707399 -22.251363
RightArm 11.765199 52.704942 111.193816
RightForeArm 3.843228 -0.000000 111.819281
RightHand 28.447015 -0.000000 -17.626627
RightHandThumb1 -24.326973 -0.000000 -32.862282
LeftUpLeg 7.385771 -4.496328 -4.460763
LeftLeg 3.863062 -0.000000 -0.000000
LeftFoot -15.989811 10.301711 -19.880130
LeftToeBase 17.234296 -0.000000 -0.000000
RightUpLeg 8.093448 -10.339198 1.304944
RightLeg 2.999672 -0.000000 -0.000000
RightFoot -14.601874 -14.998827 14.901015
RightToeBase 8.978196 -0.000000 -0.000000
1879
root 5.047840 32.317785 2.429816 -3.575238 5.473662 0.764906
Spine 1.926383 5.899235 -1.165058
Head 6.423440 -10.405019 -0.509168
LeftShoulder -10.308583 -3.679865 25.717250
LeftArm -1.060499 32.452149 -100.398902
LeftForeArm 4.680349 0.000000 10.199215
LeftHand 10.744203 -0.000000 -4.048637
LeftHandThumb1 -26.253704 0.000000 33.147579
RightShoulder -13.004700 -11.709154 -22.279062
RightArm 11.720021 52.577978 111.126148
RightForeArm 3.562070 -0.000000 111.865543
RightHand 28.340479 -0.000000 -17.749956
RightHandThumb1 -24.326973 -0.000000 -32.862282
LeftUpLeg 7.383018 -4.461871 -4.456197
LeftLeg 3.862566 -0.000000 -0.000000
LeftFoot -15.980278 10.294870 -19.871818
LeftToeBase 17.242055 -0.000000 -0.000000
RightUpLeg 8.082046 -10.331184 1.306647
RightLeg 3.014118 -0.000000 -0.000000
RightFoot -14.624033 -14.990003 14.921051
RightToeBase 9.129060 -0.000000 -0.000000
1880
root 5.045722 32.317868 2.429109 -3.574618 5.460089 0.763263
Spine 1.926010 5.913930 -1.196707
Head 6.403130 -10.439318 -0.463531
LeftShoulder -10.262387 -3.710541 25.727349
LeftArm -1.117463 32.440395 -100.433659
LeftForeArm 4.636003 -0.000000 10.208736
LeftHand 10.685097 -0.000000 -4.094779
LeftHandThumb1 -26.253704 0.000000 33.147579
RightShoulder -12.995062 -11.748843 -22.303799
RightArm 11.727181 52.431088 111.087192
RightForeArm 3.404337 -0.000000 111.873605
RightHand 28.347009 -0.000000 -17.868366
RightHandThumb1 -24.326973 -0.000000 -32.862282
LeftUpLeg 7.385137 -4.471641 -4.454197
LeftLeg 3.856570 -0.000000 -0.000000
LeftFoot -15.987110 10.321396 -19.871568
LeftToeBase 17.255886 -0.000000 -0.000000
RightUpLeg 8.072966 -10.325655 1.312380
RightLeg 3.023059 -0.000000 -0.000000
RightFoot -14.619310 -14.983595 14.919182
RightToeBase 9.113478 -0.000000 -0.000000
1881
root 5.043984 32.318190 2.427903 -3.571874 5.440245 0.763446
Spine 1.921857 5.923921 -1.234253
Head 6.395963 -10.479306 -0.410009
LeftShoulder -10.232039 -3.704141 25.734401
LeftArm -1.130170 32.441957 -100.445004
LeftForeArm 4.639178 -0.000000 10.211221
LeftHand 10.641382 0.000000 -4.172318
LeftHandThumb1 -26.253704 0.000000 33.147579
RightShoulder -12.965084 -11.761771 -22.330756
RightArm 11.694926 52.285731 111.003227
RightForeArm 3.379248 -0.000000 111.869397
RightHand 28.320655 -0.000000 -18.000482
RightHandThumb1 -24.326973 -0.000000 -32.862282
LeftUpLeg 7.383104 -4.447866 -4.448144
LeftLeg 3.853871 -0.000000 -0.000000
LeftFoot -15.982698 10.306301 -19.896728
LeftToeBase 17.221773 -0.000000 -0.000000
RightUpLeg 8.061008 -10.298247 1.319533
RightLeg 3.028695 -0.000000 -0.000000
RightFoot -14.612525 -14.996913 14.899132
RightToeBase 9.063588 -0.000000 -0.000000
1882
root 5.042074 32.318235 2.428000 -3.579085 5.428152 0.757377
Spine 1.925981 5.921377 -1.262370
Head 6.393438 -10.526330 -0.353452
LeftShoulder -10.210736 -3.686123 25.740960
LeftArm -1.115711 32.507064 -100.455382
LeftForeArm 4.616924 -0.000000 10.168167
LeftHand 10.606601 0.000000 -4.104751
LeftHandThumb1 -26.253704 0.000000 33.147579
RightShoulder -12.936413 -11.779656 -22.364770
RightArm 11.665325 52.128638 110.921215
RightForeArm 3.448381 0.000000 111.851048
RightHand 28.289801 -0.000000 -18.079746
RightHandThumb1 -24.326973 -0.000000 -32.862282
LeftUpLeg 7.397981 -4.440660 -4.438721
LeftLeg 3.837756 -0.000000 -0.000000
LeftFoot -15.981913 10.316663 -19.886508
LeftToeBase 17.206624 -0.000000 -0.000000
RightUpLeg 8.061858 -10.300741 1.325303
RightLeg 3.039788 -0.000000 -0.000000
RightFoot -14.624580 -14.963001 14.936211
RightToeBase 9.138657 -0.000000 -0.000000
1883
root 5.041846 32.318959 2.427102 -3.589024 5.407636 0.756698
Spine 1.938911 5.914455 -1.287292
Head 6.389039 -10.548067 -0.308395
LeftShoulder -10.184882 -3.668370 25.734961
LeftArm -1.107205 32.501380 -100.458283
LeftForeArm 4.634911 0.000000 10.134841
LeftHand 10.607769 0.000000 -4.132606
LeftHandThumb1 -26.253704 0.000000 33.147579
RightShoulder -12.894961 -11.726926 -22.423643
RightArm 11.534559 51.980729 110.750672
RightForeArm 3.506410 -0.000000 111.810504
RightHand 28.301502 0.000000 -18.174693
RightHandThumb1 -24.326973 -0.000000 -32.862282
LeftUpLeg 7.404895 -4.414879 -4.436761
LeftLeg 3.842616 -0.000000 -0.000000
LeftFoot -15.972131 10.307312 -19.882558
LeftToeBase 17.176522 -0.000000 -0.000000
RightUpLeg 8.035521 -10.392974 1.314927
RightLeg 3.103444 -0.000000 -0.000000
RightFoot -14.590872 -14.912859 14.841796
RightToeBase 9.029038 -0.000000 -0.000000
1884
root 5.038879 32.318866 2.425480 -3.588415 5.376892 0.758574
Spine 1.938707 5.917474 -1.331001
Head 6.392141 -10.580007 -0.242817
LeftShoulder -10.153808 -3.677094 25.757674
LeftArm -1.132735 32.552451 -100.481690
LeftForeArm 4.608229 -0.000000 10.101339
LeftHand 10.607033 -0.000000 -4.181000
LeftHandThumb1 -26.253704 0.000000 33.147579
RightShoulder -12.865446 -11.683382 -22.473094
RightArm 11.438021 51.793396 110.604605
RightForeArm 3.577657 -0.000000 111.754727
RightHand 28.288448 -0.000000 -18.362635
RightHandThumb1 -24.326973 -0.000000 -32.862282
LeftUpLeg 7.406556 -4.387553 -4.432953
LeftLeg 3.833747 -0.000000 -0.000000
LeftFoot -15.976702 10.318788 -19.879350
LeftToeBase 17.234192 -0.000000 -0.000000
RightUpLeg 8.035108 -10.319186 1.324115
RightLeg 3.087253 -0.000000 -0.000000
RightFoot -14.600327 -14.937214 14.866442
RightToeBase 9.057229 -0.000000 -0.000000
1885
root 5.036390 32.319198 2.424259 -3.594954 5.349881 0.752993
Spine 1.948042 5.901617 -1.363905
Head 6.390520 -10.589010 -0.180934
LeftShoulder -10.156867 -3.636623 25.775204
LeftArm -1.092193 32.603901 -100.484920
LeftForeArm 4.738918 -0.000000 10.036947
LeftHand 10.540214 -0.000000 -4.516923
LeftHandThumb1 -26.253704 0.000000 33.147579
RightShoulder -12.828982 -11.639396 -22.522015
RightArm 11.363846 51.616993 110.473958
RightForeArm 3.644018 -0.000000 111.693355
RightHand 28.307319 -0.000000 -18.506398
RightHandThumb1 -24.326973 -0.000000 -32.862282
LeftUpLeg 7.410613 -4.349345 -4.418778
LeftLeg 3.836928 -0.000000 -0.000000
LeftFoot -15.966948 10.300654 -19.878452
LeftToeBase 17.236985 -0.000000 -0.000000
RightUpLeg 8.036412 -10.285412 1.337653
RightLeg 3.081845 -0.000000 -0.000000
RightFoot -14.588630 -14.934388 14.880633
RightToeBase 9.052589 -0.000000 -0.000000
